<svg width="24" height="24" viewBox="0 0 24 24" fill="none" xmlns="http://www.w3.org/2000/svg">
<path d="M22.1381 17.1701V20.1701C22.1392 20.4486 22.0822 20.7243 21.9706 20.9794C21.8591 21.2346 21.6954 21.4637 21.4902 21.652C21.285 21.8402 21.0427 21.9836 20.7789 22.0728C20.515 22.162 20.2355 22.1952 19.9581 22.1701C16.881 21.8357 13.9251 20.7842 11.3281 19.1001C8.91194 17.5648 6.86345 15.5163 5.32812 13.1001C3.6381 10.4913 2.58636 7.52109 2.25812 4.4301C2.23313 4.15356 2.26599 3.87486 2.35462 3.61172C2.44324 3.34859 2.58569 3.10679 2.77288 2.90172C2.96008 2.69665 3.18792 2.53281 3.44191 2.42062C3.69589 2.30843 3.97046 2.25036 4.24812 2.2501H7.24812C7.73342 2.24532 8.20391 2.41718 8.57188 2.73363C8.93985 3.05008 9.18019 3.48954 9.24812 3.9701C9.37474 4.93016 9.60957 5.87282 9.94812 6.7801C10.0827 7.13802 10.1118 7.52701 10.032 7.90098C9.95227 8.27494 9.76698 8.61821 9.49812 8.8901L8.22812 10.1601C9.65167 12.6636 11.7246 14.7365 14.2281 16.1601L15.4981 14.8901C15.77 14.6212 16.1133 14.4359 16.4872 14.3562C16.8612 14.2764 17.2502 14.3056 17.6081 14.4401C18.5154 14.7786 19.4581 15.0135 20.4181 15.1401C20.9039 15.2086 21.3475 15.4533 21.6646 15.8276C21.9818 16.2019 22.1503 16.6797 22.1381 17.1701Z" stroke="#9A9FAE" stroke-width="1.5" stroke-linecap="round" stroke-linejoin="round"/>
</svg>
