<svg width="29" height="29" viewBox="0 0 29 29" fill="none" xmlns="http://www.w3.org/2000/svg">
<path d="M14.4973 5.60601C16.5745 5.57405 18.5834 6.34791 20.1023 7.76519L24.1934 3.76465C21.5687 1.30514 18.0941 -0.0435207 14.4973 0.00107157C11.81 0.000450602 9.17537 0.747426 6.88823 2.15846C4.60108 3.5695 2.75155 5.58896 1.54646 7.99101L6.23421 11.6305C6.8074 9.88765 7.91323 8.36867 9.39575 7.28779C10.8783 6.20691 12.6627 5.61867 14.4973 5.60601Z" fill="#1A1D26"/>
<path d="M28.4138 14.8201C28.4309 13.8236 28.328 12.8286 28.1072 11.8566H14.497V17.2372H22.4869C22.3353 18.1805 21.9945 19.0834 21.485 19.8917C20.9755 20.6999 20.3078 21.3967 19.522 21.9402L24.0969 25.4836C25.5226 24.107 26.6439 22.4468 27.3882 20.61C28.1325 18.7733 28.4833 16.8009 28.418 14.8201H28.4138Z" fill="#1A1D26"/>
<path d="M6.2508 17.3648C5.93385 16.442 5.77045 15.4733 5.76711 14.4975C5.77289 13.5233 5.93044 12.556 6.23408 11.6303L1.54633 7.99073C0.5296 10.0093 0 12.2381 0 14.4982C0 16.7584 0.5296 18.9872 1.54633 21.0057L6.2508 17.3648Z" fill="#1A1D26"/>
<path d="M14.4974 28.9945C18.0286 29.0944 21.4639 27.8379 24.0974 25.4832L19.5225 21.9399C18.0392 22.9343 16.2825 23.4411 14.4974 23.3896C12.6643 23.3787 10.8812 22.7908 9.40102 21.7095C7.92082 20.6281 6.81871 19.1081 6.25103 17.365L1.56328 21.006C2.76512 23.4069 4.61162 25.4259 6.89601 26.8368C9.1804 28.2478 11.8125 28.9949 14.4974 28.9945Z" fill="#1A1D26"/>
</svg>
