<svg width="26" height="26" viewBox="0 0 26 26" fill="none" xmlns="http://www.w3.org/2000/svg">
<path d="M7.93459 0.764706H18.0654L25.2353 7.93459V18.0654L18.0654 25.2353H7.93459L0.764706 18.0654V7.93459L7.93459 0.764706Z" stroke="#9A9FAE" stroke-width="1.5" stroke-linecap="round" stroke-linejoin="round"/>
<path d="M11.4753 18.154L15.9976 8.24316M10.135 9.84461C10.9169 10.2014 11.2616 11.1245 10.9048 11.9065C10.548 12.6884 9.62484 13.0331 8.8429 12.6763C8.06096 12.3195 7.71631 11.3963 8.07311 10.6144C8.42991 9.83246 9.35304 9.48781 10.135 9.84461ZM18.63 13.7209C19.4119 14.0777 19.7566 15.0008 19.3998 15.7827C19.043 16.5647 18.1198 16.9093 17.3379 16.5525C16.5559 16.1957 16.2113 15.2726 16.5681 14.4906C16.9249 13.7087 17.848 13.3641 18.63 13.7209Z" stroke="#9A9FAE" stroke-width="1.5" stroke-linecap="round" stroke-linejoin="round"/>
</svg>
