<svg width="28" height="28" viewBox="0 0 28 28" fill="none" xmlns="http://www.w3.org/2000/svg">
<path d="M22.1663 11.6665V13.9998C22.1663 16.1658 21.3059 18.243 19.7744 19.7745C18.2428 21.3061 16.1656 22.1665 13.9997 22.1665M13.9997 22.1665C11.8337 22.1665 9.75652 21.3061 8.22497 19.7745C6.69342 18.243 5.83301 16.1658 5.83301 13.9998V11.6665M13.9997 22.1665V26.8332M9.33301 26.8332H18.6663M13.9997 1.1665C13.0714 1.1665 12.1812 1.53525 11.5248 2.19163C10.8684 2.84801 10.4997 3.73825 10.4997 4.6665V13.9998C10.4997 14.9281 10.8684 15.8183 11.5248 16.4747C12.1812 17.1311 13.0714 17.4998 13.9997 17.4998C14.9279 17.4998 15.8182 17.1311 16.4745 16.4747C17.1309 15.8183 17.4997 14.9281 17.4997 13.9998V4.6665C17.4997 3.73825 17.1309 2.84801 16.4745 2.19163C15.8182 1.53525 14.9279 1.1665 13.9997 1.1665Z" stroke="white" stroke-width="2" stroke-linecap="round" stroke-linejoin="round"/>
</svg>
