<svg width="22" height="20" viewBox="0 0 22 20" fill="none" xmlns="http://www.w3.org/2000/svg">
<path d="M18.8968 19.8718H18.897C19.3212 19.8713 19.7278 19.7026 20.0278 19.4026C20.3277 19.1027 20.4965 18.696 20.497 18.2718V18.2717V14.2412C20.497 14.1273 20.4517 14.0181 20.3712 13.9375C20.2907 13.857 20.1814 13.8117 20.0675 13.8117C19.9536 13.8117 19.8444 13.857 19.7638 13.9375C19.6833 14.0181 19.6381 14.1273 19.6381 14.2412V18.2715C19.6378 18.4681 19.5596 18.6565 19.4206 18.7955C19.2816 18.9344 19.0932 19.0126 18.8967 19.0129H1.72852C1.53197 19.0126 1.34355 18.9344 1.20457 18.7955C1.06561 18.6565 0.987419 18.4681 0.987125 18.2716V5.04437L18.8967 5.04437C18.8967 5.04437 18.8968 5.04437 18.8968 5.04437C19.0933 5.04459 19.2817 5.12276 19.4207 5.26173C19.5597 5.40071 19.6379 5.58916 19.6381 5.78571V9.81637C19.6381 9.93027 19.6833 10.0395 19.7638 10.12C19.8444 10.2006 19.9536 10.2458 20.0675 10.2458C20.1814 10.2458 20.2907 10.2006 20.3712 10.12C20.4517 10.0395 20.497 9.93027 20.497 9.81637V5.78558V5.78543C20.4965 5.36124 20.3277 4.95458 20.0278 4.65464C19.7278 4.3547 19.3212 4.18597 18.897 4.18545H18.8968H0.557665C0.443765 4.18545 0.334531 4.23069 0.253991 4.31123C0.173452 4.39177 0.128205 4.50101 0.128205 4.61491L0.128205 18.2717L0.128205 18.2718C0.128639 18.696 0.297349 19.1027 0.597314 19.4027C0.89728 19.7027 1.304 19.8714 1.72821 19.8718H1.72834H18.8968Z" fill="#9A9FAE" stroke="#9A9FAE" stroke-width="0.25"/>
<path d="M20.5377 14.669H20.5378C20.7854 14.6688 21.0228 14.5702 21.1978 14.395C21.3728 14.2198 21.4711 13.9823 21.4711 13.7347V10.3215V10.3213C21.4708 10.0739 21.3724 9.8366 21.1975 9.66159C21.0225 9.48657 20.7853 9.38808 20.5378 9.38771H20.5377H17.0097C16.3093 9.38771 15.6376 9.66592 15.1424 10.1611C14.6472 10.6564 14.369 11.328 14.369 12.0284C14.369 12.7287 14.6472 13.4004 15.1424 13.8956C15.6376 14.3908 16.3093 14.669 17.0097 14.669H20.5377ZM17.0097 10.2478H17.0097L20.5374 10.2466C20.5572 10.2467 20.5762 10.2547 20.5902 10.2687C20.6043 10.2827 20.6122 10.3018 20.6122 10.3217L20.6122 13.7347L20.6122 13.7358C20.6123 13.7457 20.6104 13.7555 20.6067 13.7646C20.603 13.7738 20.5975 13.7821 20.5906 13.7891C20.5836 13.7962 20.5753 13.8017 20.5662 13.8055C20.5571 13.8094 20.5473 13.8113 20.5375 13.8113H17.0097C16.7757 13.8113 16.544 13.7652 16.3278 13.6757C16.1116 13.5862 15.9152 13.4549 15.7498 13.2895C15.5843 13.124 15.4531 12.9276 15.3635 12.7114C15.274 12.4953 15.2279 12.2636 15.2279 12.0296C15.2279 11.7956 15.274 11.5639 15.3635 11.3477C15.4531 11.1316 15.5843 10.9351 15.7498 10.7697C15.9152 10.6042 16.1116 10.473 16.3278 10.3835C16.544 10.2939 16.7757 10.2478 17.0097 10.2478Z" fill="#9A9FAE" stroke="#9A9FAE" stroke-width="0.25"/>
<path d="M0.418449 4.20867L0.418459 4.20867L11.9637 0.2535C11.9637 0.253497 11.9637 0.253495 11.9637 0.253492C12.3129 0.133807 12.6856 0.0992041 13.0509 0.152561C13.4161 0.205919 13.7633 0.345698 14.0637 0.560277C14.364 0.774856 14.6088 1.05803 14.7777 1.38627C14.9465 1.71449 15.0346 2.07829 15.0346 2.44741C15.0346 2.44742 15.0346 2.44742 15.0346 2.44743V4.61494C15.0346 4.72884 14.9893 4.83807 14.9088 4.91861C14.8283 4.99915 14.719 5.0444 14.6051 5.0444C14.4912 5.0444 14.382 4.99915 14.3014 4.91861C14.2209 4.83807 14.1757 4.72884 14.1757 4.61494V2.44741C14.1756 2.21501 14.1202 1.98597 14.0138 1.77932C13.9075 1.57267 13.7533 1.39439 13.5642 1.25929C13.3751 1.12419 13.1565 1.03618 12.9265 1.00256C12.6966 0.968952 12.4619 0.990713 12.2421 1.06604L12.2005 0.944752L12.2421 1.06604L0.696944 5.02115C0.696925 5.02116 0.696906 5.02117 0.696887 5.02117L0.696772 5.02121L0.418449 4.20867ZM0.418449 4.20867C0.322279 4.24162 0.240917 4.30763 0.188839 4.39493C0.13676 4.48224 0.117341 4.58519 0.134037 4.68547C0.150733 4.78575 0.202461 4.87686 0.280019 4.94258C0.357543 5.00827 0.455849 5.04435 0.557464 5.0444M0.418449 4.20867L0.557464 5.0444M0.557464 5.0444C0.557508 5.0444 0.557551 5.0444 0.557594 5.0444L0.557615 4.91619L0.557464 5.0444Z" fill="#9A9FAE" stroke="#9A9FAE" stroke-width="0.25"/>
<path d="M18.3375 12.0284V12.0283C18.3375 11.789 18.2665 11.5551 18.1336 11.3561C18.0006 11.1571 17.8117 11.002 17.5906 10.9104C17.3695 10.8189 17.1263 10.7949 16.8915 10.8415C16.6568 10.8882 16.4412 11.0034 16.272 11.1726C16.1028 11.3418 15.9875 11.5574 15.9408 11.7921C15.894 12.0268 15.9179 12.27 16.0095 12.4911C16.101 12.7122 16.256 12.9012 16.455 13.0342C16.6539 13.1672 16.8878 13.2383 17.1271 13.2383H17.1272C17.4481 13.2382 17.7558 13.1106 17.9827 12.8838C18.2096 12.6569 18.3372 12.3493 18.3375 12.0284ZM16.9321 11.7367C16.9898 11.6981 17.0577 11.6775 17.1272 11.6775C17.2203 11.6775 17.3095 11.7145 17.3754 11.7803C17.4412 11.8461 17.4782 11.9353 17.4783 12.0284C17.4783 12.0979 17.4578 12.1658 17.4192 12.2235C17.3807 12.2813 17.3258 12.3263 17.2617 12.3529C17.1975 12.3795 17.1269 12.3865 17.0588 12.373C16.9907 12.3595 16.9281 12.3261 16.879 12.277C16.8299 12.2279 16.7964 12.1653 16.7828 12.0972C16.7693 12.0291 16.7762 11.9585 16.8028 11.8943C16.8294 11.8302 16.8744 11.7753 16.9321 11.7367Z" fill="#9A9FAE" stroke="#9A9FAE" stroke-width="0.25"/>
</svg>
