<svg width="26" height="26" viewBox="0 0 26 26" fill="none" xmlns="http://www.w3.org/2000/svg">
<path d="M22.4433 24.4898H22.4435C22.9317 24.4892 23.3998 24.295 23.745 23.9497C24.0902 23.6045 24.2845 23.1364 24.285 22.6482V22.6481V17.9473C24.285 17.821 24.2349 17.6998 24.1455 17.6105C24.0562 17.5212 23.935 17.471 23.8087 17.471C23.6824 17.471 23.5612 17.5212 23.4719 17.6105C23.3825 17.6998 23.3323 17.821 23.3323 17.9473V22.6479C23.332 22.8836 23.2382 23.1096 23.0716 23.2763C22.9049 23.4429 22.6789 23.5367 22.4432 23.5371H2.42C2.18428 23.5367 1.9583 23.4429 1.79162 23.2763C1.62496 23.1096 1.53118 22.8837 1.53083 22.648V7.1966L22.4432 7.1966C22.4432 7.1966 22.4433 7.1966 22.4433 7.1966C22.679 7.19686 22.905 7.29061 23.0717 7.45729C23.2383 7.62398 23.3321 7.84999 23.3323 8.08573V12.7867C23.3323 12.913 23.3825 13.0342 23.4719 13.1235C23.5612 13.2128 23.6824 13.263 23.8087 13.263C23.935 13.263 24.0562 13.2128 24.1455 13.1235C24.2349 13.0342 24.285 12.913 24.285 12.7867V8.0856V8.08545C24.2845 7.59722 24.0902 7.12916 23.745 6.78393C23.3998 6.43871 22.9317 6.2445 22.4435 6.2439H22.4433H1.05448C0.92814 6.2439 0.806978 6.29408 0.717645 6.38342C0.628312 6.47275 0.578125 6.59391 0.578125 6.72025L0.578125 22.6481L0.578125 22.6482C0.578624 23.1364 0.772807 23.6046 1.11806 23.9498C1.46332 24.2951 1.93144 24.4893 2.4197 24.4898H2.41983H22.4433Z" fill="#1A1D26" stroke="#1A1D26" stroke-width="0.25"/>
<path d="M24.3584 18.4219H24.3586C24.6409 18.4216 24.9115 18.3093 25.111 18.1095C25.3105 17.9098 25.4226 17.639 25.4226 17.3567V13.3759V13.3758C25.4223 13.0937 25.3101 12.8232 25.1106 12.6236C24.9112 12.4241 24.6407 12.3118 24.3586 12.3114H24.3584H20.2437C19.4334 12.3114 18.6563 12.6333 18.0833 13.2063C17.5104 13.7792 17.1885 14.5564 17.1885 15.3667C17.1885 16.177 17.5104 16.9541 18.0833 17.5271C18.6563 18.1001 19.4334 18.4219 20.2437 18.4219H24.3584ZM20.2437 13.2655H20.2438L24.3582 13.2641C24.3878 13.2642 24.4162 13.2761 24.4371 13.297C24.458 13.318 24.4698 13.3464 24.4699 13.3761L24.4699 17.3567L24.4699 17.3578C24.47 17.3726 24.4672 17.3872 24.4617 17.4009C24.4561 17.4146 24.4479 17.427 24.4375 17.4375L24.5264 17.5254L24.4375 17.4375C24.4272 17.448 24.4148 17.4563 24.4012 17.462L24.4494 17.5773L24.4012 17.462C24.3876 17.4677 24.373 17.4706 24.3582 17.4706H20.2437C19.9676 17.4706 19.6942 17.4163 19.4391 17.3106C19.184 17.2049 18.9522 17.0501 18.757 16.8548C18.5618 16.6596 18.4069 16.4278 18.3012 16.1727C18.1956 15.9176 18.1412 15.6442 18.1412 15.3681C18.1412 15.092 18.1956 14.8186 18.3012 14.5635C18.4069 14.3084 18.5618 14.0766 18.757 13.8813C18.9522 13.6861 19.184 13.5312 19.4391 13.4256C19.6942 13.3199 19.9676 13.2655 20.2437 13.2655Z" fill="#1A1D26" stroke="#1A1D26" stroke-width="0.25"/>
<path d="M0.82696 6.98877L0.746515 7.0837C0.660489 7.0108 0.603113 6.90975 0.584594 6.79852C0.566075 6.68729 0.587614 6.5731 0.645379 6.47626C0.703144 6.37942 0.793389 6.30621 0.90006 6.26966L0.90007 6.26965L14.3652 1.65677C14.3652 1.65677 14.3653 1.65676 14.3653 1.65676C14.7688 1.51844 15.1995 1.47845 15.6217 1.54011C16.0438 1.60178 16.4451 1.76332 16.7922 2.01132C17.1393 2.25931 17.4222 2.58658 17.6174 2.96593C17.8125 3.34527 17.9143 3.76572 17.9143 4.19233V6.72029C17.9143 6.84662 17.8641 6.96778 17.7748 7.05712C17.6854 7.14645 17.5643 7.19664 17.4379 7.19664C17.3116 7.19664 17.1904 7.14645 17.1011 7.05712C17.0118 6.96778 16.9616 6.84662 16.9616 6.72029V4.19231C16.9616 3.91736 16.8959 3.64638 16.7701 3.4019C16.6443 3.15741 16.4619 2.94649 16.2382 2.78666C16.0145 2.62682 15.7558 2.5227 15.4838 2.48293C15.2117 2.44316 14.9341 2.46891 14.674 2.55802L14.6334 2.43977L14.674 2.55802L1.20894 7.17086C1.2089 7.17087 1.20886 7.17088 1.20883 7.1709L1.20877 7.17092L0.82696 6.98877ZM0.82696 6.98877L0.746515 7.0837M0.82696 6.98877L0.746515 7.0837M1.05427 7.19664C1.05431 7.19664 1.05436 7.19664 1.0544 7.19664L1.05442 7.07164L1.05427 7.19664ZM1.05427 7.19664C0.941555 7.19659 0.832508 7.15657 0.746515 7.0837M1.05427 7.19664L0.746515 7.0837" fill="#1A1D26" stroke="#1A1D26" stroke-width="0.25"/>
<path d="M21.7685 15.3668V15.3667C21.7685 15.0924 21.6872 14.8243 21.5348 14.5963C21.3825 14.3683 21.1659 14.1905 20.9126 14.0856C20.6592 13.9806 20.3804 13.9531 20.1114 14.0066C19.8424 14.0601 19.5954 14.1921 19.4014 14.386C19.2075 14.5799 19.0754 14.8269 19.0218 15.0959C18.9683 15.3649 18.9957 15.6437 19.1006 15.8971C19.2055 16.1505 19.3831 16.3671 19.6111 16.5195C19.8391 16.6719 20.1072 16.7533 20.3814 16.7534H20.3815C20.7493 16.7532 21.1019 16.607 21.3619 16.3471C21.622 16.0871 21.7682 15.7345 21.7685 15.3668ZM20.1403 15.0062C20.2117 14.9585 20.2956 14.933 20.3815 14.933C20.4965 14.933 20.6069 14.9787 20.6883 15.0601C20.7696 15.1414 20.8154 15.2517 20.8155 15.3668C20.8155 15.4526 20.7901 15.5366 20.7425 15.608C20.6948 15.6794 20.627 15.735 20.5477 15.7679C20.4684 15.8008 20.3812 15.8094 20.297 15.7927C20.2128 15.776 20.1354 15.7347 20.0747 15.674C20.014 15.6133 19.9726 15.536 19.9558 15.4518C19.9391 15.3676 19.9476 15.2803 19.9805 15.201C20.0133 15.1217 20.0689 15.0539 20.1403 15.0062Z" fill="#1A1D26" stroke="#1A1D26" stroke-width="0.25"/>
</svg>
