<svg width="17" height="17" viewBox="0 0 17 17" fill="none" xmlns="http://www.w3.org/2000/svg">
<path d="M17 13.3571C17 13.9122 16.5501 14.3621 15.9951 14.3621H1.00489C0.449902 14.3621 0 13.9122 0 13.3571V3.64311C0 3.08809 0.449902 2.63818 1.00489 2.63818H15.9951C16.5501 2.63818 17 3.08812 17 3.64311V13.3571Z" fill="white"/>
<path d="M3.77314 8.56768L3.37397 6.65282C3.30574 6.38876 3.10718 6.3102 2.85909 6.2998H1.029L1.0127 6.3873C2.43807 6.73284 3.38121 7.56644 3.77314 8.56768Z" fill="#1A1D26"/>
<path d="M8.01374 6.3385H6.83128L6.09277 10.6724H7.27328L8.01374 6.3385Z" fill="#1A1D26"/>
<path d="M4.49346 10.6679L6.35317 6.34131H5.10171L3.94481 9.2973L3.82133 8.85099C3.59455 8.31406 2.94643 7.54126 2.18555 7.05477L3.24307 10.6693L4.49346 10.6679Z" fill="#1A1D26"/>
<path d="M11.3863 9.25559C11.3907 8.76355 11.0748 8.38825 10.394 8.07827C9.98021 7.87805 9.72803 7.74454 9.73105 7.54137C9.73105 7.36188 9.94461 7.16907 10.4073 7.16907C10.7945 7.16312 11.0733 7.24766 11.2913 7.33518L11.3982 7.38416L11.5584 6.44527C11.324 6.35772 10.9576 6.26428 10.4994 6.26428C9.33208 6.26428 8.51039 6.85168 8.50296 7.69414C8.49552 8.31713 9.09039 8.6642 9.53827 8.87182C9.99804 9.08346 10.1523 9.2189 10.1493 9.40875C10.1464 9.69905 9.78294 9.83143 9.44331 9.83143C8.97016 9.83143 8.71948 9.76618 8.3307 9.60422L8.17962 9.53482L8.01367 10.506C8.28936 10.6265 8.79953 10.7318 9.32912 10.7362C10.5705 10.7362 11.3774 10.1563 11.3863 9.25559Z" fill="#1A1D26"/>
<path d="M12.7909 10.0229C12.9258 10.0229 14.1317 10.0244 14.3038 10.0244C14.3394 10.1753 14.4477 10.674 14.4477 10.674H15.5437L14.587 6.34302H13.6749C13.3916 6.34302 13.181 6.42015 13.0564 6.70191L11.3018 10.674H12.5433C12.5432 10.674 12.7449 10.1401 12.7909 10.0229ZM13.6006 7.92409C13.5948 7.93595 13.6986 7.67344 13.7579 7.51028L13.838 7.88402C13.838 7.88402 14.0635 8.91936 14.1109 9.13591H13.1305C13.2284 8.88675 13.6006 7.92409 13.6006 7.92409Z" fill="#1A1D26"/>
<path d="M15.9951 2.63818H1.00489C0.449902 2.63818 0 3.08808 0 3.6431V4.68608H17V3.6431C17 3.08808 16.5501 2.63818 15.9951 2.63818Z" fill="#1A1D26"/>
<path d="M15.9951 14.362H1.00489C0.449902 14.362 0 13.9121 0 13.3571V12.3141H17V13.3571C17 13.9121 16.5501 14.362 15.9951 14.362Z" fill="#1A1D26"/>
<path opacity="0.15" d="M0.714432 13.3571V3.64311C0.714432 3.08809 1.16437 2.63818 1.71939 2.63818H1.00486C0.449902 2.63818 0 3.08809 0 3.64311V13.3572C0 13.9122 0.449902 14.3621 1.00489 14.3621H1.71942C1.1644 14.3621 0.714432 13.9122 0.714432 13.3571Z" fill="#202121"/>
</svg>
