<svg width="31" height="26" viewBox="0 0 31 26" fill="none" xmlns="http://www.w3.org/2000/svg">
<path d="M30.2463 22.2029C30.2463 22.914 29.9638 23.596 29.461 24.0988C28.9582 24.6016 28.2762 24.884 27.5652 24.884H3.43517C2.7241 24.884 2.04215 24.6016 1.53934 24.0988C1.03654 23.596 0.754062 22.914 0.754062 22.2029V7.45684C0.754062 6.74576 1.03654 6.06381 1.53934 5.561C2.04215 5.0582 2.7241 4.77573 3.43517 4.77573H8.79739L11.4785 0.754062H19.5218L22.2029 4.77573H27.5652C28.2762 4.77573 28.9582 5.0582 29.461 5.561C29.9638 6.06381 30.2463 6.74576 30.2463 7.45684V22.2029Z" stroke="white" stroke-width="1.5" stroke-linecap="round" stroke-linejoin="round"/>
<path d="M15.5002 19.5218C18.4616 19.5218 20.8624 17.1211 20.8624 14.1596C20.8624 11.1981 18.4616 8.79739 15.5002 8.79739C12.5387 8.79739 10.1379 11.1981 10.1379 14.1596C10.1379 17.1211 12.5387 19.5218 15.5002 19.5218Z" stroke="white" stroke-width="1.5" stroke-linecap="round" stroke-linejoin="round"/>
</svg>
