<svg width="22" height="17" viewBox="0 0 22 17" fill="none" xmlns="http://www.w3.org/2000/svg">
<path fill-rule="evenodd" clip-rule="evenodd" d="M17.033 5.73982C17.425 5.73982 17.7425 5.41837 17.7425 5.02235C17.7425 4.62632 17.425 4.30487 17.033 4.30487C16.6411 4.30487 16.3236 4.62632 16.3236 5.02235C16.3236 5.41837 16.6411 5.73982 17.033 5.73982ZM1.41883 1.43596C1.41883 1.03893 1.73323 0.718486 2.12825 0.718486H3.5491C3.94109 0.718486 4.25751 1.03692 4.25751 1.43596V2.15243H1.41883V1.43596ZM11.001 13.6321C8.84453 13.6321 7.09719 11.8656 7.09719 9.68595C7.09719 7.50631 8.84453 5.73982 11.001 5.73982C13.1554 5.73982 14.9038 7.50631 14.9038 9.68595C14.9038 11.8656 13.1554 13.6321 11.001 13.6321ZM11.001 14.7073C13.7439 14.7073 15.9679 12.4591 15.9679 9.68595C15.9679 6.91278 13.7439 4.66361 11.001 4.66361C8.25604 4.66361 6.03205 6.91278 6.03205 9.68595C6.03205 12.4591 8.25604 14.7073 11.001 14.7073ZM5.21179 3.22865L7.01657 0.566324C7.2564 0.253939 7.77133 0 8.15829 0H13.8427C14.2327 0 14.7446 0.253939 14.9844 0.566324L16.7902 3.22865H20.5821C21.3661 3.22865 22.001 3.86954 22.001 4.66159V15.068C22.001 15.8591 21.3661 16.501 20.5821 16.501H1.41782C0.634847 16.501 0 15.8611 0 15.068V4.66159C0 3.87055 0.634847 3.22865 1.41782 3.22865H5.21179Z" fill="white"/>
</svg>
