<svg width="16" height="16" viewBox="0 0 16 16" fill="none" xmlns="http://www.w3.org/2000/svg">
<path d="M12.6663 6.66663V7.99996C12.6663 9.23764 12.1747 10.4246 11.2995 11.2998C10.4243 12.175 9.23735 12.6666 7.99968 12.6666M7.99968 12.6666C6.762 12.6666 5.57501 12.175 4.69984 11.2998C3.82467 10.4246 3.33301 9.23764 3.33301 7.99996V6.66663M7.99968 12.6666V15.3333M5.33301 15.3333H10.6663M7.99968 0.666626C7.46924 0.666626 6.96053 0.87734 6.58546 1.25241C6.21039 1.62749 5.99967 2.13619 5.99967 2.66663V7.99996C5.99967 8.53039 6.21039 9.0391 6.58546 9.41417C6.96053 9.78924 7.46924 9.99996 7.99968 9.99996C8.53011 9.99996 9.03882 9.78924 9.41389 9.41417C9.78896 9.0391 9.99968 8.53039 9.99968 7.99996V2.66663C9.99968 2.13619 9.78896 1.62749 9.41389 1.25241C9.03882 0.87734 8.53011 0.666626 7.99968 0.666626Z" stroke="#1A1D26" stroke-linecap="round" stroke-linejoin="round"/>
</svg>
