<svg width="37" height="39" viewBox="0 0 37 39" fill="none" xmlns="http://www.w3.org/2000/svg">
<path fill-rule="evenodd" clip-rule="evenodd" d="M27.1149 0.983887C22.0299 0.983887 17.8929 4.99689 17.8929 9.92889V19.2209H3.60089C1.72989 19.2209 0.212891 20.6919 0.212891 22.5079V35.4229C0.212891 37.2389 1.72989 38.7109 3.60089 38.7109H20.1409C22.0119 38.7109 23.5299 37.2389 23.5299 35.4229V22.5079C23.5299 20.8589 22.2769 19.4979 20.6449 19.2609V9.92889C20.6449 6.46889 23.5479 3.65289 27.1149 3.65289C30.6819 3.65289 33.5849 6.46889 33.5849 9.92889V15.8399C33.5849 16.5769 34.1999 17.1749 34.9599 17.1749C35.7189 17.1749 36.3359 16.5769 36.3359 15.8399V9.92889C36.3359 4.99689 32.1989 0.983887 27.1149 0.983887Z" fill="white"/>
</svg>
